{
    "asset" : {
        "generator" : "Khronos glTF Blender I/O v0.9.36",
        "version" : "2.0"
    },
    "scene" : 0,
    "scenes" : [
        {
            "name" : "Scene",
            "nodes" : [
                0
            ]
        }
    ],
    "nodes" : [
        {
            "mesh" : 0,
            "name" : "bean_chair_hires",
            "rotation" : [
                0,
                0.17575401067733765,
                0,
                0.9844341278076172
            ],
            "scale" : [
                0.35860031843185425,
                0.35860031843185425,
                0.35860031843185425
            ],
            "translation" : [
                -1.5218143463134766,
                1.8474935293197632,
                -2.8495912551879883
            ]
        }
    ],
    "materials" : [
        {
            "doubleSided" : true,
            "name" : "Material.003",
            "pbrMetallicRoughness" : {}
        }
    ],
    "meshes" : [
        {
            "name" : "Cube.004",
            "primitives" : [
                {
                    "attributes" : {
                        "POSITION" : 0,
                        "NORMAL" : 1,
                        "TEXCOORD_0" : 2
                    },
                    "indices" : 3,
                    "material" : 0
                }
            ]
        }
    ],
    "accessors" : [
        {
            "bufferView" : 0,
            "componentType" : 5126,
            "count" : 32364,
            "max" : [
                3.799628973007202,
                4.7565507888793945,
                3.9071319103240967
            ],
            "min" : [
                -3.78776216506958,
                0.04976928234100342,
                -3.7979588508605957
            ],
            "type" : "VEC3"
        },
        {
            "bufferView" : 1,
            "componentType" : 5126,
            "count" : 32364,
            "type" : "VEC3"
        },
        {
            "bufferView" : 2,
            "componentType" : 5126,
            "count" : 32364,
            "type" : "VEC2"
        },
        {
            "bufferView" : 3,
            "componentType" : 5123,
            "count" : 171096,
            "type" : "SCALAR"
        }
    ],
    "bufferViews" : [
        {
            "buffer" : 0,
            "byteLength" : 388368,
            "byteOffset" : 0
        },
        {
            "buffer" : 0,
            "byteLength" : 388368,
            "byteOffset" : 388368
        },
        {
            "buffer" : 0,
            "byteLength" : 258912,
            "byteOffset" : 776736
        },
        {
            "buffer" : 0,
            "byteLength" : 342192,
            "byteOffset" : 1035648
        }
    ],
    "buffers" : [
        {
            "byteLength" : 1377840,
            "uri" : "data:application/octet-stream;base64,"
        }
    ]
}
